<?xml version="1.0" encoding="utf-8"?>
<!-- Generator: Adobe Illustrator 19.2.1, SVG Export Plug-In . SVG Version: 6.00 Build 0)  -->
<svg version="1.1" id="Capa_1" xmlns="http://www.w3.org/2000/svg" xmlns:xlink="http://www.w3.org/1999/xlink" x="0px" y="0px"
	 viewBox="0 0 380 380" style="enable-background:new 0 0 380 380;" xml:space="preserve">
<style type="text/css">
	.st0{fill:#E5085B;}
	.st1{fill:#FFFFFF;}
	.st2{fill:#F9F9F9;}
</style>
<rect y="0" class="st0" width="380" height="380"/>
<g>
	<path class="st1" d="M190.2,111.6c26.5,0,53.1,0.2,79.6-0.1c7.3-0.2,14.5,2.5,19.9,7.4c10.1,8.7,17.4,19.7,23.7,31.3
		c13.9,25.2,23.4,52.5,28.2,80.8c2.5,13.4,2.5,27.2-0.2,40.5c-6.4,29.8-38.8,34.4-57,22.9c-5.8-3.7-10.7-8.7-14.1-14.7
		c-5.9-10.3-12-20.6-17.9-31c-0.7-1.5-2.2-2.4-3.9-2.2c-38.9,0.1-77.9,0.1-116.8,0c-1.6-0.1-3.2,0.8-3.8,2.3
		c-6.3,10.7-13,21.3-19.1,32.2c-9.2,16.4-36.2,26.6-56.2,12.8C43,287,38.9,277.2,37.4,266c-2.4-17.7,0.4-35.1,4.9-52.1
		c6.9-26.9,18-52.5,33-75.8c4.9-7.9,11-15,18.2-21c4.5-3.7,10.1-5.6,15.9-5.5C136.3,111.7,163.2,111.6,190.2,111.6z M147.9,194.8
		c1.2,0,2.4,0,3.6,0c8.7-0.1,15.8-7,16.3-15.6c0.1-8.5-6.2-15.7-14.7-16.5c-3.2-0.3-6.4-0.3-9.6-0.2c-1.5,0-2.2-0.3-2.1-2
		c0.1-2.6,0.1-5.3,0-8c-0.3-9.1-7.9-16.3-17-16c-8.7,0.3-15.8,7.3-16,16c0,2.6-0.1,5.3,0,8c0.1,1.6-0.5,2.1-2.1,2
		c-3.1-0.1-6.2-0.1-9.3,0.2c-8.8,0.9-15.4,8.2-15.1,16.4c0.5,8.8,7.7,15.7,16.5,15.7c2.6,0,5.3,0.1,8,0c0.7-0.3,1.6,0,1.9,0.8
		c0.1,0.4,0.1,0.7,0,1.1c-0.1,2.9-0.1,5.8,0,8.7c0.1,6.3,3.9,11.9,9.6,14.3c5.6,2.9,12.4,2.1,17.2-2c5.3-4.1,6.6-9.9,6.4-16.3
		C141.4,195,141.5,194.8,147.9,194.8z M263.2,214.6c7.4,0.2,13.6-5.6,13.8-13c0.3-7.5-5.5-13.8-13-14.1c-7.5-0.3-13.8,5.5-14.1,13
		c0,0.3,0,0.6,0,0.8C250,208.6,255.9,214.5,263.2,214.6L263.2,214.6z M227.2,178.9c0.1,7.3,6.1,13.1,13.4,13c0.1,0,0.3,0,0.4,0
		c7.3-0.3,13-6.5,12.6-13.8c-0.3-7.3-6.5-13-13.8-12.6C232.7,165.8,227.1,171.7,227.2,178.9L227.2,178.9z M263.3,142.7
		c-7.3,0-13.3,5.9-13.3,13.2c0,0,0,0,0,0c-0.2,7.5,5.7,13.7,13.2,13.8c7.5,0.2,13.7-5.7,13.8-13.2c0.2-7.5-5.7-13.7-13.2-13.8
		C263.6,142.8,263.4,142.8,263.3,142.7L263.3,142.7z M299.7,178.7c0-7.4-6.1-13.4-13.5-13.4c-7.4,0-13.4,6.1-13.4,13.5
		c0,7.4,6,13.4,13.4,13.4C293.7,192.2,299.7,186.1,299.7,178.7L299.7,178.7z M214.4,221.2c-2.2,0-4.3,0-6.6,0
		c-3,0.1-5.2,1.9-5.2,4.4c0,3.1,2,4.3,4.6,4.5c4.6,0.2,9.2,0.2,13.9,0c2.1,0.2,4-1.4,4.2-3.6c0-0.3,0-0.6,0-0.9
		c-0.1-2.9-1.6-4.5-4.6-4.5L214.4,221.2L214.4,221.2z M166.3,230.1c2.3,0,4.6,0.1,7,0c2.7-0.2,4.3-1.7,4.2-4.5
		c0.1-2.3-1.7-4.3-4-4.3c-0.2,0-0.3,0-0.5,0c-4.5-0.1-9.1-0.1-13.6,0c-2.4-0.1-4.4,1.7-4.6,4.1c0,0.1,0,0.1,0,0.2
		c-0.2,2.9,1.6,4.3,4.2,4.5C161.5,230.3,163.8,230.2,166.3,230.1L166.3,230.1z"/>
	<path class="st1" d="M189.9,103.1c-10.5,0-21,0-31.5-0.1c-1.2,0-3.6,1.6-3.7-1.4c-0.1-2.6,0-5.2,3.2-6.1c0.8-0.2,1.5-0.2,2.3-0.2
		h59.6c0.9,0,1.8,0,2.6,0.3c3.1,1,3.1,3.7,2.9,6.3c-0.2,2.5-2.4,1.2-3.6,1.2C211.1,103.2,200.5,103.1,189.9,103.1z"/>
	<path class="st1" d="M189.8,87c-5.5,0-11.1,0.1-16.6,0c-1.2,0-3.4,1.2-3.6-1.4c-0.4-2.4,0.9-4.7,3.2-5.6c0.6-0.2,1.3-0.2,2-0.2
		c10.1,0,20.1,0,30.2,0c2.7-0.2,5.1,1.7,5.5,4.3c0.4,1.9,0.2,3.1-2.4,3C202,86.9,195.8,87,189.8,87z"/>
	<path class="st2" d="M166.2,228.5c-1.9,0-3.9,0.1-5.8,0c-1.9-0.1-3.5-1-3.3-2.8s1.4-2.6,3.6-2.6c3.6-0.1,7.2,0,10.7,0
		c2.2,0,3.4,1,3.5,2.7s-1.2,2.7-3.3,2.8C169.9,228.6,168.1,228.5,166.2,228.5z"/>
	<path class="st1" d="M132.4,198.5c0,2.4,0.1,4.9,0,7.2c0,3.8-3.1,7-7,7c-4,0.3-7.4-2.8-7.7-6.7c0-0.1,0-0.1,0-0.2
		c-0.2-4.5,0-9.1-0.1-13.6c0-4.1-1.5-5.6-5.6-5.7c-4.1-0.1-8,0-11.9,0c-5.3-0.1-8.8-3.3-8.8-7.9c0-4.6,3.6-7.7,8.9-7.8
		c3.5,0,7.1,0,10.6,0c5.8,0,6.9-1.2,6.9-7.1c0-3.6,0-7.2,0-11c0.1-4.6,3.7-8.3,7.7-8.4c4.1,0,7,3.4,7.1,8.3c0,3.9,0,7.7,0,11.6
		c0,5,1.4,6.4,6.6,6.4c3.8,0,7.5,0,11.3,0c5,0.1,8.6,3.4,8.6,7.8s-3.3,7.6-8.2,7.8c-4.2,0.2-8.4,0-12.6,0c-4.2,0-5.6,1.6-5.6,5.6
		c0,2.1,0,4.2,0,6.3l0,0L132.4,198.5z"/>
	<path class="st1" d="M267.9,201.5c0.1,2.5-1.8,4.6-4.4,4.7c0,0-0.1,0-0.1,0c-2.6,0.1-4.9-1.9-5-4.5c-0.1-2.6,1.9-4.9,4.5-5
		c0.2,0,0.3,0,0.5,0C266,196.8,268,198.9,267.9,201.5C267.9,201.5,267.9,201.5,267.9,201.5z"/>
	<path class="st1" d="M240.7,182.8c-2.9,0-4.3-1.4-4.3-4.2c-0.2-2.3,1.5-4.4,3.8-4.7c0.2,0,0.4,0,0.6,0c2.4-0.1,4.4,1.8,4.5,4.2
		c0,0.2,0,0.3,0,0.5c0.1,2.2-1.7,4.1-3.9,4.2C241.1,182.9,240.9,182.9,240.7,182.8z"/>
	<path class="st1" d="M263.5,151.1c2.5,0,4.5,2,4.5,4.5c0,0.1,0,0.1,0,0.2c0,2.7-2,4.9-4.7,5c-2.7,0-4.8-2.2-4.8-4.9
		C258.6,153.2,260.8,151,263.5,151.1L263.5,151.1z"/>
	<path class="st1" d="M286.1,182.8c-2.3,0.1-4.2-1.6-4.3-3.8c0-0.1,0-0.1,0-0.2c-0.1-2.6,1.8-4.7,4.4-4.9c0.1,0,0.2,0,0.3,0
		c2.9,0.1,4,2,4.3,4.5C291.1,180.9,289.1,182.8,286.1,182.8z"/>
	<path class="st2" d="M214.2,228.5c-1.9,0-3.9,0.1-5.8,0c-1.9-0.1-3.5-1-3.3-2.8s1.4-2.6,3.6-2.6c3.6-0.1,7.2,0,10.7,0
		c2.2,0,3.4,1,3.5,2.7s-1.2,2.7-3.3,2.8C217.8,228.6,216,228.5,214.2,228.5z"/>
</g>
</svg>
