<?xml version="1.0" encoding="utf-8"?>
<!-- Generator: Adobe Illustrator 19.2.1, SVG Export Plug-In . SVG Version: 6.00 Build 0)  -->
<svg version="1.1" id="Capa_1" xmlns="http://www.w3.org/2000/svg" xmlns:xlink="http://www.w3.org/1999/xlink" x="0px" y="0px"
	 viewBox="0 0 377.9 377.9" style="enable-background:new 0 0 377.9 377.9;" xml:space="preserve">
<style type="text/css">
	.st0{fill:#512DA8;}
	.st1{fill:#FFFFFF;}
</style>
<title>cover</title>
<rect y="0" class="st0" width="377.9" height="377.9"/>
<path class="st1" d="M227.8,108.2c0.1,23.4-20.7,41.9-43.7,38.7c-2.1-0.3-2.4,0.8-3.1,2l-35.9,68.4c-1.9,3.6-2.2,3.7-5.6,1.3
	c-4.3-3-9-5.5-13.9-7.3c-3-1.1-3.3-1.8-1.7-4.7c11.9-22.7,23.8-45.4,35.8-68.1c1.1-2,1.2-3.3-0.5-5.2c-13.9-16.4-11.8-40.9,4.6-54.7
	s40.9-11.8,54.7,4.6C224.6,90.1,227.8,99,227.8,108.2z M164.2,108.3c-0.1,3.9,0.8,7.8,2.7,11.3c0.7,1.3,2.2,1.8,3.5,1.1
	c1.2-0.6,1.8-2.1,1.2-3.3c-0.2-0.5-0.4-1-0.6-1.5c-4.2-10,0.4-21.5,10.4-25.7c2.1-0.9,4.3-1.4,6.6-1.5c2-0.1,3.7-0.6,3.6-2.9
	c-0.1-2.1-1.8-2.6-3.7-2.4c-0.4,0-0.9,0-1.3,0.1C173.8,84.8,164.2,95.5,164.2,108.3L164.2,108.3z"/>
<path class="st1" d="M312.4,269.7c-0.1,20.2-15.8,37.4-35.6,38.8c-20.6,1.4-38.9-12.9-41.7-33.1c-1.8-11.2,1.6-22.6,9.1-31.1
	c1.4-1.6,1.4-2.6,0.4-4.3c-12-22.7-23.9-45.4-35.8-68.1c-1.9-3.6-1.8-4,1.9-5.4c4.8-1.8,9.4-4.3,13.6-7.2c3-2.1,3.6-2,5.2,1.2
	c11.9,22.7,23.8,45.4,35.7,68.1c1.1,2,2,2.6,4.4,2.4c21.3-2.1,40.3,13.4,42.4,34.7C312.4,266.9,312.4,268.3,312.4,269.7z
	 M248.8,269.6c0,3.9,0.9,7.8,2.7,11.3c0.5,1.3,2,1.9,3.2,1.4c0.1,0,0.2-0.1,0.4-0.2c1.2-0.5,1.8-1.9,1.3-3.2c0-0.1-0.1-0.2-0.1-0.2
	c-0.2-0.5-0.4-1-0.6-1.5c-4.2-9.9,0.4-21.4,10.3-25.7c2.1-0.9,4.4-1.4,6.7-1.6c2-0.1,3.8-0.6,3.6-2.9c-0.1-2.1-1.8-2.5-3.7-2.4
	C259.6,245,249,256.1,248.8,269.6L248.8,269.6z"/>
<path class="st1" d="M176.3,281.5c-10.7,0-21.4,0.1-32.1,0c-2.1,0-3.1,0.5-3.9,2.6c-6.4,16.2-23.2,26.3-40,24.3
	c-21.4-2.3-36.9-21.5-34.6-42.9c1.7-16,13.1-29.3,28.7-33.5c18.9-5,38.6,4.9,45.9,23.1c0.8,2.1,1.9,2.7,4,2.7c21.3-0.1,42.7,0,64,0
	c4,0,4.3,0.3,3.8,4.3c-0.6,5.1-0.6,10.4,0,15.5c0.4,3.7,0.1,4.1-3.7,4.1L176.3,281.5L176.3,281.5z M79.5,270.1
	c0,3.6,0.8,7.1,2.4,10.3c0.8,1.7,2.1,2.6,3.9,1.7s1.8-2.3,1-3.9c-0.2-0.5-0.4-1-0.6-1.5c-4.8-12.1,3.7-25.9,16.4-26.7
	c2-0.1,4.1-0.1,4.3-2.8c0.1-1.9-1.6-2.7-4.7-2.5h-0.5C88.9,246.3,79.7,256.7,79.5,270.1z"/>
</svg>
